<svg xmlns="http://www.w3.org/2000/svg" width="1780" height="924" viewBox="0 0 1780 924" version="1.1"><path d="M 160 31.015 C 147.333 33.744, 142.298 35.328, 133.840 39.242 C 110.971 49.825, 96.038 65.286, 86.267 88.500 C 83.526 95.014, 81.764 101.338, 78.888 115 C 78.076 118.859, 77.515 154.661, 77.010 235 C 76.613 297.975, 76.026 350.400, 75.704 351.500 C 75.382 352.600, 74.358 356.875, 73.428 361 C 71.443 369.804, 68.930 375.791, 64.621 381.986 C 60.256 388.259, 53.920 395, 52.387 395 C 51.679 395, 50.740 395.608, 50.300 396.352 C 49.052 398.461, 37.142 403.675, 30.500 405.019 C 23.260 406.485, 15.468 410.256, 13.996 413.008 C 12.926 415.007, 12.466 492.799, 13.517 493.851 C 13.783 494.116, 14 476.904, 14 455.601 C 14 417.155, 14.251 413.911, 17.400 411.742 C 18.005 411.325, 23.675 409.357, 30 407.369 C 45.231 402.582, 49.686 400.204, 57.848 392.505 C 67.943 382.982, 73.135 372.495, 76.666 354.500 C 78.007 347.669, 78.343 330.066, 78.965 234 C 79.750 112.982, 79.656 115.063, 85.082 97.454 C 89.492 83.139, 99.478 66.351, 108.305 58.416 C 121.157 46.861, 137.829 38.417, 157 33.754 C 164.981 31.813, 169.075 31.661, 224.001 31.274 C 262.603 31.001, 283.421 31.210, 285.203 31.887 C 286.689 32.452, 288.713 34.396, 289.702 36.207 C 291.339 39.206, 291.527 43.345, 291.803 82.500 C 291.969 106.150, 291.846 126.912, 291.528 128.638 C 290.827 132.450, 286.808 136.669, 282.605 138.005 C 279.564 138.972, 279.579 138.983, 283.339 138.544 C 287.977 138.004, 289.553 136.797, 292.073 131.857 C 293.889 128.297, 294 125.550, 294 84.067 C 294 41.032, 293.952 39.955, 291.844 35.616 C 290.659 33.176, 288.612 30.689, 287.297 30.090 C 285.652 29.340, 266.750 29.029, 226.703 29.092 C 174.264 29.175, 167.658 29.365, 160 31.015 M 1489.430 29.965 C 1487.130 30.895, 1483.770 35.437, 1484.696 36.363 C 1485.021 36.688, 1486.840 35.592, 1488.737 33.926 L 1492.186 30.897 1550.843 31.243 C 1607.584 31.578, 1609.808 31.662, 1618.914 33.839 C 1656.194 42.749, 1680.192 63.599, 1690.461 96 C 1696.516 115.108, 1696.291 110.311, 1696.968 235 L 1697.589 349.500 1700.179 359 C 1705.584 378.826, 1711.158 388.120, 1722.998 397.048 C 1728.218 400.984, 1731.956 402.740, 1741.998 405.971 C 1755.817 410.418, 1760.618 412.890, 1761.971 416.256 C 1762.842 418.423, 1762.875 418.408, 1762.937 415.801 C 1763.033 411.688, 1758.017 408.570, 1745.488 404.954 C 1732.562 401.224, 1730.265 400.132, 1723.123 394.319 C 1712.604 385.757, 1708.520 379.123, 1702.757 361.235 L 1699.620 351.500 1698.990 234 C 1698.536 149.191, 1698.036 115.387, 1697.195 112.500 C 1696.554 110.300, 1695.101 104.520, 1693.965 99.656 C 1692.829 94.792, 1691.512 90.067, 1691.039 89.156 C 1690.565 88.245, 1688.901 84.800, 1687.340 81.500 C 1682.786 71.875, 1679.232 67.072, 1669.559 57.473 C 1661.364 49.340, 1659.221 47.831, 1647.927 42.251 C 1622.059 29.467, 1618.376 28.983, 1547.574 29.063 C 1516.733 29.098, 1490.568 29.504, 1489.430 29.965 M 1485.015 133.063 C 1485.050 136.320, 1489.090 139.050, 1493.684 138.921 L 1496.500 138.842 1493.500 137.796 C 1491.850 137.221, 1489.263 135.597, 1487.750 134.188 C 1485.892 132.457, 1485.005 132.092, 1485.015 133.063 M 245.176 141.070 C 226.957 144.655, 210.913 163.218, 208.487 183.518 C 207.540 191.442, 209.320 189.659, 210.956 181.045 C 212.622 172.270, 217.790 162.421, 224.572 155.095 C 227.676 151.743, 230.597 149, 231.063 149 C 231.530 149, 233.466 147.945, 235.366 146.656 C 237.266 145.366, 241.673 143.726, 245.160 143.010 C 252.395 141.525, 255.998 140.013, 252 140.140 C 250.625 140.184, 247.554 140.602, 245.176 141.070 M 1524 141.170 C 1525.925 141.701, 1530.088 142.851, 1533.251 143.726 C 1540.817 145.820, 1550.205 152.053, 1555.080 158.220 C 1557.236 160.948, 1559 163.666, 1559 164.261 C 1559 164.856, 1559.640 166.053, 1560.423 166.921 C 1561.206 167.790, 1563.205 173, 1564.866 178.500 C 1566.789 184.866, 1567.907 187.409, 1567.943 185.497 C 1568.026 181.114, 1564.591 169.860, 1561.330 163.834 C 1557.597 156.937, 1549.611 148.850, 1543.454 145.732 C 1536.916 142.421, 1528.495 139.975, 1524.068 140.102 L 1520.500 140.204 1524 141.170 M 420.500 154.765 C 418.942 155.910, 415.668 160.972, 412.587 167 C 411.041 170.025, 409.239 173.175, 408.581 174 C 407.924 174.825, 406.841 176.625, 406.174 178 C 405.506 179.375, 403.860 182.300, 402.515 184.500 C 401.171 186.700, 399.400 189.850, 398.581 191.500 C 397.761 193.150, 395.722 196.525, 394.050 199 C 392.377 201.475, 391.007 203.915, 391.004 204.421 C 391.002 204.928, 390.378 206.053, 389.618 206.921 C 388.858 207.790, 385.784 213, 382.786 218.500 C 379.789 224, 376.372 230.075, 375.194 232 C 374.016 233.925, 372.142 237.075, 371.031 239 C 369.920 240.925, 367.896 244.300, 366.533 246.500 C 365.170 248.700, 363.365 251.850, 362.520 253.500 C 361.676 255.150, 359.880 258.300, 358.528 260.500 C 357.176 262.700, 355.380 265.850, 354.536 267.500 C 353.692 269.150, 351.889 272.300, 350.528 274.500 C 349.168 276.700, 347.365 279.850, 346.520 281.500 C 345.676 283.150, 343.904 286.300, 342.581 288.500 C 341.259 290.700, 338.739 295.200, 336.981 298.500 C 335.223 301.800, 333.440 304.725, 333.018 305 C 332.596 305.275, 331.233 307.877, 329.988 310.783 C 327.753 316.002, 327.748 316.116, 329.550 320.283 C 330.554 322.602, 331.923 325.175, 332.592 326 C 333.262 326.825, 335.242 330.200, 336.993 333.500 C 338.744 336.800, 341.259 341.300, 342.581 343.500 C 343.904 345.700, 345.676 348.850, 346.520 350.500 C 347.365 352.150, 349.168 355.300, 350.528 357.500 C 351.889 359.700, 353.692 362.850, 354.536 364.500 C 355.380 366.150, 357.164 369.300, 358.501 371.500 C 359.839 373.700, 361.735 376.926, 362.716 378.669 C 365.215 383.106, 372.820 396.108, 374.283 398.442 C 379.618 406.953, 381.816 410.798, 382.391 412.631 C 382.758 413.803, 383.946 415.785, 385.030 417.034 C 386.113 418.284, 387 420.067, 387 420.998 C 387 421.929, 387.900 423.505, 389 424.500 C 390.100 425.495, 391 427.114, 391 428.096 C 391 429.078, 391.496 430.188, 392.102 430.563 C 392.708 430.938, 393.846 432.652, 394.630 434.372 C 395.414 436.092, 397.170 439.300, 398.533 441.500 C 399.896 443.700, 401.920 447.075, 403.031 449 C 404.142 450.925, 406.016 454.075, 407.194 456 C 408.372 457.925, 411.789 464, 414.786 469.500 C 417.784 475, 420.858 480.210, 421.618 481.079 C 422.378 481.947, 423 482.953, 423 483.314 C 423 483.675, 424.460 486.339, 426.245 489.235 C 430.146 495.565, 432.203 499.183, 434.926 504.500 C 436.053 506.700, 437.543 509.389, 438.237 510.476 C 440.828 514.530, 445.588 522.584, 446.821 525 C 447.523 526.375, 449.197 529.300, 450.541 531.500 C 451.886 533.700, 453.676 536.850, 454.520 538.500 C 455.365 540.150, 457.168 543.300, 458.528 545.500 C 459.889 547.700, 461.692 550.850, 462.536 552.500 C 463.380 554.150, 465.176 557.300, 466.528 559.500 C 467.880 561.700, 469.676 564.850, 470.520 566.500 C 471.365 568.150, 473.168 571.300, 474.528 573.500 C 475.889 575.700, 477.692 578.850, 478.536 580.500 C 479.380 582.150, 481.176 585.300, 482.528 587.500 C 483.880 589.700, 485.676 592.850, 486.520 594.500 C 487.365 596.150, 489.168 599.300, 490.528 601.500 C 491.889 603.700, 493.692 606.850, 494.536 608.500 C 495.380 610.150, 497.176 613.300, 498.528 615.500 C 499.880 617.700, 501.676 620.850, 502.520 622.500 C 506.125 629.545, 508.899 633.521, 510.425 633.829 C 511.578 634.061, 510.620 631.714, 507.159 625.829 C 502.260 617.498, 465.483 553.451, 450.984 528 C 446.755 520.575, 435.505 501, 425.985 484.500 C 416.465 468, 403.301 445.050, 396.731 433.500 C 376.496 397.923, 354.176 359.267, 344.192 342.505 C 338.952 333.707, 333.582 324.145, 332.259 321.255 L 329.853 316 332.263 310.750 C 333.588 307.863, 337.974 299.875, 342.010 293 C 346.046 286.125, 352.803 274.425, 357.025 267 C 361.246 259.575, 367.173 249.225, 370.196 244 C 373.218 238.775, 381.672 224.150, 388.982 211.500 C 396.292 198.850, 404.392 184.900, 406.981 180.500 C 409.570 176.100, 413.374 169.460, 415.434 165.744 C 417.493 162.028, 420.139 158.316, 421.312 157.494 C 423.167 156.195, 435.595 156, 516.755 156 C 604.681 156, 610.106 156.101, 610.782 157.750 C 612.367 161.614, 622.980 180.298, 657.503 240 C 677.380 274.375, 695.833 306.550, 698.510 311.500 C 704.388 322.372, 715.574 341.974, 740.165 384.500 C 785.108 462.222, 837.965 554.044, 863.064 598 C 874.527 618.075, 884.604 635.400, 885.458 636.500 C 886.933 638.399, 886.961 638.360, 886.015 635.709 C 884.726 632.099, 883.820 630.465, 855.698 581 C 842.645 558.039, 802.872 488.752, 797.722 480 C 796.589 478.075, 794.023 473.575, 792.019 470 C 790.015 466.425, 784.948 457.650, 780.759 450.500 C 776.570 443.350, 762.148 418.375, 748.711 395 C 716.707 339.328, 713.617 333.986, 707.864 324.376 C 705.189 319.908, 703 315.584, 703 314.766 C 703 313.948, 704.029 311.754, 705.287 309.890 C 707.696 306.319, 707.932 305.916, 721.028 283 C 725.586 275.025, 732.850 262.316, 737.171 254.757 C 741.491 247.199, 748.539 234.824, 752.833 227.257 C 757.127 219.691, 762.746 210.044, 765.320 205.820 C 767.894 201.596, 770 197.806, 770 197.399 C 770 196.991, 770.634 195.947, 771.409 195.079 C 772.184 194.210, 773.918 191.475, 775.262 189 C 788.758 164.151, 792.871 158.345, 797.821 157.154 C 799.844 156.667, 842.170 156.320, 891.878 156.384 L 982.256 156.500 983.878 158.907 C 984.770 160.230, 987.127 164.280, 989.115 167.907 C 997.154 182.569, 1039.334 256.376, 1043.297 262.715 C 1044.599 264.797, 1047.135 269.200, 1048.934 272.500 C 1052.461 278.971, 1062.247 296.101, 1067.500 305 C 1069.286 308.025, 1072.771 314.325, 1075.245 319 C 1077.718 323.675, 1084.363 335.375, 1090.011 345 C 1095.659 354.625, 1113.079 384.775, 1128.722 412 C 1144.366 439.225, 1158.927 464.301, 1161.082 467.725 C 1163.237 471.150, 1165 474.264, 1165 474.647 C 1165 475.029, 1165.649 476.060, 1166.442 476.936 C 1167.236 477.813, 1169.393 481.448, 1171.236 485.015 C 1173.079 488.582, 1177.688 496.675, 1181.478 503 C 1189.101 515.721, 1197.714 530.589, 1221.930 572.828 C 1230.862 588.408, 1242.533 608.433, 1247.865 617.328 C 1258.299 634.734, 1260 638.052, 1260 640.995 C 1260 642.040, 1257.330 647.133, 1254.067 652.312 C 1250.804 657.491, 1246.153 665.278, 1243.732 669.615 C 1241.310 673.952, 1238.419 679.075, 1237.306 681 C 1236.194 682.925, 1228.293 696.650, 1219.749 711.500 C 1211.204 726.350, 1200.791 744.350, 1196.608 751.500 C 1192.424 758.650, 1185.964 769.846, 1182.251 776.380 C 1178.538 782.914, 1174.097 789.777, 1172.382 791.630 C 1170.092 794.105, 1169.693 794.996, 1170.882 794.985 C 1173.288 794.962, 1174.406 793.962, 1177.575 789 C 1180.780 783.981, 1181.122 783.387, 1186.489 773.500 C 1188.579 769.650, 1191.799 764.129, 1193.644 761.231 C 1195.490 758.332, 1197 755.812, 1197 755.629 C 1197 755.446, 1199.469 751.292, 1202.488 746.398 C 1205.506 741.504, 1208.647 736.150, 1209.468 734.500 C 1210.288 732.850, 1211.404 730.825, 1211.947 730 C 1212.490 729.175, 1215.311 724.305, 1218.217 719.177 C 1221.123 714.049, 1224.491 708.199, 1225.702 706.177 C 1226.914 704.155, 1228.229 701.825, 1228.625 701 C 1229.335 699.520, 1237.720 684.850, 1241.384 678.675 C 1242.420 676.929, 1244.848 672.575, 1246.778 669 C 1248.709 665.425, 1251.799 660.129, 1253.644 657.231 C 1255.490 654.332, 1257 651.765, 1257 651.525 C 1257 651.285, 1258.125 649.431, 1259.500 647.405 C 1262.780 642.572, 1262.780 637.428, 1259.500 632.595 C 1258.125 630.569, 1257 628.440, 1257 627.863 C 1257 627.287, 1256.100 625.671, 1255 624.273 C 1253.900 622.874, 1253 621.138, 1253 620.415 C 1253 619.691, 1252.428 618.740, 1251.729 618.300 C 1251.030 617.860, 1249.875 616.375, 1249.162 615 C 1247.253 611.316, 1244.915 607.232, 1240.864 600.500 C 1238.878 597.200, 1235.996 592.250, 1234.458 589.500 C 1231.282 583.817, 1229.168 580.107, 1223.550 570.356 C 1221.377 566.585, 1218.758 561.925, 1217.730 560 C 1216.702 558.075, 1214.770 554.700, 1213.438 552.500 C 1212.105 550.300, 1210.320 547.150, 1209.472 545.500 C 1208.624 543.850, 1206.388 540.025, 1204.504 537 C 1202.620 533.975, 1201.060 531.007, 1201.039 530.405 C 1201.018 529.803, 1200.100 528.495, 1199 527.500 C 1197.900 526.505, 1197 525.043, 1197 524.253 C 1197 523.462, 1196.100 521.671, 1195 520.273 C 1193.900 518.874, 1193 517.171, 1193 516.488 C 1193 515.804, 1192.299 514.663, 1191.442 513.952 C 1190.585 513.241, 1189.237 511.273, 1188.447 509.580 C 1187.656 507.886, 1186.162 505.150, 1185.127 503.500 C 1184.092 501.850, 1180.265 495.663, 1176.623 489.750 L 1170.002 479 1262.398 479 L 1354.793 479 1357.646 475.572 C 1361.467 470.983, 1365 465.178, 1365 463.490 C 1365 462.735, 1365.424 461.856, 1365.943 461.535 C 1366.462 461.215, 1368.824 457.537, 1371.193 453.363 C 1373.562 449.189, 1376.491 444.137, 1377.702 442.137 C 1378.914 440.136, 1380.229 437.825, 1380.625 437 C 1381.414 435.358, 1390.189 420.042, 1393.702 414.177 C 1394.914 412.155, 1396.229 409.825, 1396.625 409 C 1397.567 407.038, 1406.862 390.883, 1409.758 386.172 C 1411 384.152, 1413.418 379.817, 1415.130 376.537 C 1416.843 373.257, 1419.395 368.757, 1420.802 366.537 C 1422.209 364.317, 1423.856 361.600, 1424.463 360.500 C 1425.069 359.400, 1427.800 354.764, 1430.532 350.198 C 1444.744 326.446, 1447.347 321.124, 1447.265 316 C 1447.187 311.100, 1446.404 308.900, 1442.242 301.867 C 1439.012 296.410, 1432.459 284.962, 1429.725 280 C 1428.665 278.075, 1427.168 275.790, 1426.399 274.921 C 1425.629 274.053, 1425 272.835, 1425 272.216 C 1425 271.264, 1422.051 266.249, 1419.264 262.462 C 1418.844 261.891, 1417.375 259.204, 1416 256.491 C 1414.625 253.778, 1412.487 250.063, 1411.250 248.235 C 1410.013 246.407, 1409 244.501, 1409 244 C 1409 243.116, 1405.066 236.736, 1403.014 234.292 C 1402.456 233.628, 1402 232.703, 1402 232.236 C 1402 231.770, 1400.875 229.864, 1399.500 228 C 1398.125 226.136, 1397 224.024, 1397 223.306 C 1397 222.588, 1396.100 221.100, 1395 220 C 1393.900 218.900, 1393 217.320, 1393 216.490 C 1393 215.659, 1391.527 212.847, 1389.727 210.240 C 1387.927 207.633, 1385.880 204.375, 1385.179 203 C 1384.477 201.625, 1382.913 198.857, 1381.702 196.848 C 1379.158 192.629, 1372.539 181.107, 1369.725 176 C 1368.665 174.075, 1367.168 171.790, 1366.399 170.921 C 1365.629 170.053, 1365 168.797, 1365 168.131 C 1365 167.464, 1364.194 165.700, 1363.210 164.210 C 1362.225 162.719, 1360.954 160.600, 1360.385 159.500 C 1359.816 158.400, 1357.809 156.713, 1355.925 155.752 C 1352.738 154.125, 1346.177 154.004, 1261.500 154.015 C 1211.450 154.022, 1169.493 154.297, 1168.262 154.627 C 1165.745 155.302, 1159.393 163.586, 1158.420 167.463 C 1158.070 168.858, 1157.388 170, 1156.905 170 C 1156.422 170, 1155.392 171.520, 1154.615 173.378 C 1153.839 175.236, 1152.708 177.062, 1152.102 177.437 C 1151.496 177.812, 1151 178.936, 1151 179.937 C 1151 180.937, 1150.255 182.373, 1149.345 183.128 C 1148.435 183.882, 1147.054 185.850, 1146.276 187.500 C 1145.499 189.150, 1143.787 192.300, 1142.472 194.500 C 1141.157 196.700, 1139.385 199.850, 1138.533 201.500 C 1137.682 203.150, 1135.880 206.300, 1134.528 208.500 C 1133.176 210.700, 1131.349 213.850, 1130.467 215.500 C 1129.584 217.150, 1127.787 220.300, 1126.472 222.500 C 1125.157 224.700, 1123.385 227.850, 1122.533 229.500 C 1121.682 231.150, 1119.886 234.300, 1118.541 236.500 C 1117.197 238.700, 1115.518 241.625, 1114.810 243 C 1114.102 244.375, 1112.956 246.094, 1112.263 246.820 C 1111.570 247.546, 1110.729 249.233, 1110.393 250.570 C 1110.058 251.906, 1109.412 253, 1108.959 253 C 1108.506 253, 1107.816 254.004, 1107.427 255.231 C 1107.037 256.458, 1105.882 258.708, 1104.859 260.231 C 1103.837 261.754, 1102.120 264.305, 1101.044 265.900 C 1099.969 267.495, 1098.795 269.970, 1098.436 271.400 C 1098.077 272.830, 1097.388 274, 1096.905 274 C 1096.422 274, 1095.343 275.462, 1094.506 277.250 C 1093.670 279.037, 1091.895 282.300, 1090.562 284.500 C 1089.228 286.700, 1087.416 289.850, 1086.533 291.500 C 1085.651 293.150, 1083.831 296.300, 1082.488 298.500 C 1079.798 302.910, 1078 306.691, 1078 307.943 C 1078 308.390, 1077.283 309.351, 1076.406 310.078 C 1074.443 311.707, 1073.109 310.121, 1066.815 298.673 C 1064.442 294.357, 1062.044 290.077, 1061.487 289.163 C 1055.717 279.690, 1051.946 273.110, 1049.074 267.500 C 1047.947 265.300, 1046.457 262.626, 1045.763 261.558 C 1041.951 255.697, 1038.207 249.111, 1037.060 246.250 C 1036.344 244.463, 1035.430 243, 1035.030 243 C 1034.631 243, 1033.569 241.313, 1032.672 239.250 C 1030.324 233.854, 1026.431 227.644, 1025.123 227.208 C 1024.506 227.002, 1024 226.210, 1024 225.447 C 1024 224.685, 1023.024 222.360, 1021.830 220.280 C 1020.637 218.201, 1018.724 214.860, 1017.580 212.856 C 1016.436 210.852, 1013.735 206.127, 1011.577 202.356 C 1009.419 198.585, 1006.755 193.925, 1005.657 192 C 1003.642 188.469, 1003.147 187.605, 995 173.393 C 992.525 169.076, 990.337 165.084, 990.139 164.522 C 989.549 162.854, 984.588 155.561, 983.503 154.765 C 982.951 154.361, 940.631 154.024, 889.458 154.015 L 796.416 154 792.102 158.396 C 789.730 160.813, 787.274 163.683, 786.644 164.773 C 786.015 165.864, 783.114 170.973, 780.198 176.128 C 777.282 181.283, 773.579 187.750, 771.969 190.500 C 770.359 193.250, 768.135 197.075, 767.027 199 C 765.918 200.925, 763.896 204.300, 762.533 206.500 C 761.170 208.700, 759.365 211.850, 758.520 213.500 C 757.676 215.150, 755.895 218.300, 754.562 220.500 C 753.228 222.700, 751.416 225.850, 750.533 227.500 C 749.651 229.150, 747.839 232.300, 746.505 234.500 C 745.172 236.700, 743.385 239.850, 742.533 241.500 C 741.682 243.150, 739.880 246.300, 738.528 248.500 C 737.176 250.700, 735.380 253.850, 734.536 255.500 C 733.692 257.150, 731.889 260.300, 730.528 262.500 C 729.168 264.700, 727.365 267.850, 726.520 269.500 C 725.676 271.150, 723.895 274.300, 722.562 276.500 C 721.230 278.700, 719.266 282.075, 718.200 284 C 715.481 288.907, 713.246 292.853, 710.552 297.500 C 709.276 299.700, 706.982 303.863, 705.453 306.750 C 703.924 309.637, 702.272 312, 701.781 312 C 701.291 312, 699.746 309.637, 698.348 306.750 C 696.950 303.863, 694.742 299.700, 693.441 297.500 C 692.139 295.300, 690.184 291.925, 689.096 290 C 688.007 288.075, 686.182 284.925, 685.040 283 C 683.897 281.075, 682.265 278.150, 681.413 276.500 C 680.560 274.850, 678.881 271.845, 677.681 269.823 C 676.482 267.801, 673.123 261.951, 670.217 256.823 C 667.311 251.695, 664.490 246.825, 663.947 246 C 663.404 245.175, 662.277 243.150, 661.443 241.500 C 660.608 239.850, 658.609 236.475, 657 234 C 655.391 231.525, 653.392 228.150, 652.557 226.500 C 651.109 223.636, 650.586 222.760, 646.893 217.004 C 645.230 214.414, 641.310 207.526, 637.445 200.407 C 636.223 198.155, 634.123 194.555, 632.780 192.407 C 630.589 188.903, 627.536 183.551, 621.712 173 C 620.650 171.075, 618.714 167.700, 617.411 165.500 C 616.108 163.300, 614.291 160.073, 613.373 158.328 C 612.455 156.583, 610.758 154.902, 609.602 154.592 C 606.448 153.745, 421.658 153.915, 420.500 154.765 M 1569.475 340.500 C 1569.679 383.226, 1569.697 383.561, 1572.248 393 C 1576.264 407.858, 1579.478 415.705, 1585.687 425.814 C 1588.339 430.132, 1610.217 451.987, 1613.500 453.599 C 1615.150 454.409, 1617.776 455.774, 1619.335 456.631 L 1622.170 458.190 1619.911 460.595 C 1618.668 461.918, 1617.294 463, 1616.857 463 C 1615.417 463, 1603.769 471.414, 1599.560 475.495 C 1592.907 481.946, 1585.330 491.810, 1582.272 498 C 1581.593 499.375, 1580.645 501.175, 1580.165 502 C 1576.174 508.862, 1574.103 515.829, 1570.947 533 C 1569.474 541.019, 1569.051 547.516, 1569.159 560.500 L 1569.300 577.500 1570.080 563 C 1571.592 534.882, 1574.110 521.183, 1580.598 505.767 C 1586.110 492.670, 1598.858 477.393, 1611.866 468.296 C 1620.119 462.524, 1624.083 458.943, 1623.416 457.864 C 1623.134 457.408, 1619.887 455.083, 1616.202 452.698 C 1602.207 443.643, 1585.562 424.010, 1579.951 409.938 C 1576.252 400.664, 1573.158 388.888, 1571.952 379.500 C 1571.316 374.550, 1570.452 354.075, 1570.032 334 L 1569.270 297.500 1569.475 340.500 M 205.747 366 C 204.327 387.699, 201.068 400.889, 193.453 415.756 C 184.979 432.300, 175.585 442.382, 158.230 453.559 C 154.865 455.727, 152.086 457.821, 152.056 458.213 C 152.025 458.606, 156.387 462.255, 161.750 466.324 C 190.299 487.981, 201.815 510.130, 205.072 549.636 C 205.700 557.261, 206.449 563.725, 206.736 564 C 207.023 564.275, 207.003 557.525, 206.690 549 C 205.834 525.626, 200.441 507.072, 189.548 490.022 C 184.204 481.657, 163.795 463, 159.989 463 C 159.488 463, 158.168 462.024, 157.057 460.831 C 155.532 459.194, 155.307 458.335, 156.140 457.331 C 156.748 456.599, 157.617 456, 158.072 456 C 159.124 456, 165.787 451.314, 173.500 445.150 C 181.321 438.899, 187.512 431.137, 193.773 419.734 C 203.256 402.459, 207.438 385.099, 206.837 365.500 L 206.500 354.500 205.747 366 M 13.118 498.795 C 13.026 502.144, 13.553 503.644, 15.506 505.597 C 18.753 508.844, 25.688 511.970, 29.500 511.905 C 32.042 511.862, 31.668 511.559, 27.053 509.921 C 18.310 506.818, 15.282 504.254, 14.186 499.027 L 13.236 494.500 13.118 498.795 M 1760.174 504.725 C 1758.895 505.616, 1754.395 507.592, 1750.174 509.117 C 1741.114 512.389, 1744.197 513.018, 1753.929 509.883 C 1757.936 508.592, 1761.201 506.836, 1762.297 505.383 C 1764.362 502.644, 1763.531 502.387, 1760.174 504.725 M 34.174 513.021 C 34.400 513.699, 37.361 515.258, 40.755 516.487 C 47.624 518.974, 50.231 520.508, 55.594 525.217 C 59.750 528.866, 67 538.319, 67 540.089 C 67 540.735, 67.855 542.667, 68.899 544.382 C 69.944 546.097, 72.073 551.325, 73.630 556 L 76.461 564.500 77.097 683 C 77.495 757.174, 78.118 803.557, 78.762 807 C 80.265 815.033, 83.967 829.925, 84.938 831.844 C 85.399 832.755, 87.646 837.432, 89.931 842.239 C 92.216 847.045, 95.897 853.071, 98.112 855.629 C 100.326 858.188, 102.812 861.309, 103.635 862.565 C 105.289 865.091, 117.382 875.429, 121.122 877.514 C 123.471 878.824, 133.678 883.857, 139.500 886.575 C 144.543 888.930, 163.112 892.966, 173.587 893.984 C 188.430 895.428, 283.255 895.297, 286.478 893.828 C 287.892 893.184, 290.051 891.046, 291.275 889.078 C 293.491 885.514, 293.500 885.315, 293.500 839.500 C 293.500 793.727, 293.489 793.477, 291.235 788.904 C 289.956 786.308, 287.845 783.795, 286.385 783.130 C 284.963 782.482, 275.407 781.489, 265.150 780.923 C 254.892 780.358, 244.703 779.422, 242.506 778.843 C 238.063 777.673, 231.272 774.415, 229.423 772.566 C 228.761 771.904, 226.928 770.269, 225.349 768.932 C 221.081 765.317, 214.230 754.512, 212.488 748.649 C 211.647 745.817, 210.683 741.025, 210.346 738 C 209.353 729.090, 207.796 728.426, 208.477 737.202 C 209.709 753.084, 215.427 763.842, 228.200 774.308 C 235.966 780.671, 241.175 782.022, 262.274 783.143 C 272.636 783.694, 282.775 784.714, 284.807 785.410 C 291.593 787.736, 291.500 786.994, 291.500 839 C 291.500 883.243, 291.407 885.638, 289.575 888.341 C 288.517 889.904, 286.575 891.591, 285.260 892.091 C 282.080 893.300, 197.535 893.220, 178.537 891.990 C 162.331 890.940, 149.688 888.231, 137.104 883.110 C 126.461 878.778, 119.669 874.387, 110.845 866.132 C 97.126 853.296, 87.852 836.938, 82.992 817 C 81.852 812.325, 80.645 807.600, 80.310 806.500 C 79.975 805.400, 79.392 751.175, 79.014 686 C 78.276 558.785, 78.519 564.547, 73.218 548.794 C 68.441 534.600, 57.751 522.044, 45.778 516.565 C 36.338 512.246, 33.641 511.422, 34.174 513.021 M 1736.971 513.442 C 1720.654 519.455, 1710.356 529.824, 1703.696 546.944 C 1697.566 562.701, 1697.759 558.650, 1697.010 687 C 1696.276 812.780, 1696.542 806.286, 1691.406 823.980 C 1688.901 832.610, 1680.789 848.869, 1675.523 855.812 C 1665.628 868.862, 1648.505 880.147, 1628.500 886.805 C 1611.891 892.332, 1609.501 892.500, 1547.308 892.500 L 1490.115 892.500 1488.019 890.250 C 1485.217 887.243, 1483.435 887.367, 1485.703 890.411 C 1489.176 895.071, 1490.821 895.180, 1551 894.725 C 1607.392 894.298, 1607.521 894.292, 1618.500 891.733 C 1657.591 882.620, 1679.638 863.716, 1691.848 828.841 C 1698.747 809.135, 1698.310 817.806, 1698.990 687 L 1699.606 568.500 1702.251 558.714 C 1708.569 535.333, 1718.539 522.536, 1735.112 516.535 C 1738.579 515.280, 1741.585 513.746, 1741.791 513.126 C 1742.255 511.735, 1741.460 511.787, 1736.971 513.442 M 512 637.194 C 512 638.673, 512.422 640.142, 512.937 640.461 C 513.452 640.779, 514.510 642.268, 515.288 643.770 C 517.064 647.195, 524.838 661.076, 527.500 665.574 C 528.600 667.432, 530.788 671.326, 532.362 674.226 C 533.936 677.127, 535.774 680.175, 536.447 681 C 537.120 681.825, 538.249 683.962, 538.957 685.750 C 539.664 687.538, 540.570 689, 540.970 689 C 541.369 689, 542.425 690.688, 543.314 692.750 C 544.204 694.813, 545.510 697.389, 546.216 698.476 C 550.275 704.720, 554.618 711.823, 555.709 714 C 556.398 715.375, 557.533 717.389, 558.231 718.476 C 560.743 722.386, 565.571 730.550, 566.821 733 C 567.523 734.375, 569.197 737.300, 570.541 739.500 C 571.886 741.700, 573.676 744.850, 574.520 746.500 C 575.365 748.150, 577.168 751.300, 578.528 753.500 C 579.889 755.700, 581.692 758.850, 582.536 760.500 C 583.380 762.150, 585.164 765.300, 586.501 767.500 C 587.839 769.700, 589.735 772.926, 590.716 774.669 C 597.335 786.426, 601.101 792.766, 602.495 794.500 C 608.495 801.960, 597.631 781.894, 569.743 734 C 565.100 726.025, 555.667 709.825, 548.782 698 C 541.898 686.175, 530.805 667.052, 524.132 655.503 C 515.507 640.576, 512 635.284, 512 637.194 M 886.490 642.892 C 884.664 646.408, 877.724 658.416, 871.980 668 C 868.848 673.225, 860.753 687.175, 853.991 699 C 847.229 710.825, 837.867 727.025, 833.186 735 C 824.201 750.308, 808.971 776.869, 802.608 788.326 C 800.523 792.080, 799.084 795.417, 799.409 795.742 C 799.734 796.067, 800.114 796.146, 800.253 795.917 C 800.393 795.688, 801.518 794.056, 802.753 792.290 C 803.989 790.525, 805 788.793, 805 788.441 C 805 788.090, 807.578 783.459, 810.728 778.151 C 817.140 767.347, 817.209 767.226, 822.489 757.500 C 824.579 753.650, 827.799 748.129, 829.644 745.231 C 831.490 742.332, 833 739.812, 833 739.629 C 833 739.446, 835.469 735.292, 838.488 730.398 C 841.506 725.504, 844.647 720.150, 845.468 718.500 C 846.288 716.850, 847.394 714.825, 847.926 714 C 848.457 713.175, 850.823 709.125, 853.184 705 C 855.544 700.875, 858.017 696.600, 858.678 695.500 C 859.339 694.400, 860.573 692.150, 861.420 690.500 C 862.267 688.850, 863.404 686.825, 863.947 686 C 864.490 685.175, 867.311 680.305, 870.217 675.177 C 873.123 670.050, 876.264 664.650, 877.199 663.177 C 878.133 661.705, 880.519 657.277, 882.501 653.337 C 885.933 646.515, 888.080 644.313, 890.090 645.556 C 890.591 645.865, 891 646.936, 891 647.937 C 891 648.937, 891.658 650.301, 892.461 650.968 C 893.265 651.635, 894.218 653.152, 894.580 654.340 C 894.941 655.528, 895.807 657.175, 896.505 658 C 897.202 658.825, 899.192 662.184, 900.926 665.465 C 902.660 668.746, 904.736 672.156, 905.540 673.044 C 906.343 673.931, 907 675.383, 907 676.270 C 907 677.156, 907.496 678.188, 908.102 678.563 C 908.708 678.938, 909.850 680.652, 910.639 682.372 C 911.429 684.092, 913.391 687.525, 915 690 C 916.609 692.475, 918.616 695.850, 919.461 697.500 C 920.305 699.150, 921.872 701.850, 922.942 703.500 C 924.823 706.400, 926.086 708.576, 930.200 716 C 931.266 717.925, 933.230 721.300, 934.562 723.500 C 935.895 725.700, 937.676 728.850, 938.520 730.500 C 939.365 732.150, 941.168 735.300, 942.528 737.500 C 943.889 739.700, 945.692 742.850, 946.536 744.500 C 947.380 746.150, 949.176 749.300, 950.528 751.500 C 951.880 753.700, 953.676 756.850, 954.520 758.500 C 955.365 760.150, 957.183 763.300, 958.562 765.500 C 959.941 767.700, 961.760 770.850, 962.603 772.500 C 963.447 774.150, 965.223 777.300, 966.549 779.500 C 967.875 781.700, 969.504 784.625, 970.169 786 C 971.917 789.616, 976.132 794, 977.861 794 C 979.020 794, 978.903 793.503, 977.331 791.750 C 975.174 789.346, 968.169 778.028, 963.249 769 C 959.611 762.324, 928.154 707.693, 923.518 700 C 921.695 696.975, 919.325 692.925, 918.250 691 C 904.870 667.027, 894.179 649.404, 889.277 643.243 C 887.546 641.067, 887.445 641.055, 886.490 642.892 M 1569.365 689.500 C 1569.368 695, 1569.536 697.122, 1569.738 694.216 C 1569.941 691.311, 1569.939 686.811, 1569.734 684.216 C 1569.528 681.622, 1569.363 684, 1569.365 689.500 M 1566.578 737.500 C 1563.778 748.231, 1561.525 754.848, 1559.886 757.154 C 1558.849 758.614, 1558 760.272, 1558 760.838 C 1558 763.505, 1546.777 773.048, 1539.427 776.633 L 1531.655 780.423 1512.577 781.065 C 1502.085 781.418, 1492.375 782.175, 1491 782.747 C 1488.193 783.916, 1483.073 789, 1484.703 789 C 1485.282 789, 1486.295 788.350, 1486.954 787.555 C 1488.685 785.470, 1496.174 784.335, 1515.760 783.189 C 1531.941 782.243, 1533.440 781.983, 1539.760 779.038 C 1547.776 775.302, 1555.727 767.903, 1560.606 759.639 C 1564.332 753.329, 1568.376 740.355, 1567.747 736.728 C 1567.404 734.750, 1567.273 734.837, 1566.578 737.500 M 1166.324 790.460 C 1163.702 791.600, 1155.234 791.731, 1117.824 791.206 C 1092.896 790.857, 1061.706 790.555, 1048.514 790.536 C 1025.932 790.502, 1024.507 790.609, 1024.170 792.355 C 1023.824 794.152, 1026.017 794.192, 1094.156 793.637 C 1132.845 793.321, 1165.462 793.040, 1166.639 793.011 C 1167.901 792.980, 1168.989 792.148, 1169.295 790.980 C 1169.580 789.891, 1169.742 789.018, 1169.656 789.039 C 1169.570 789.061, 1168.071 789.700, 1166.324 790.460" stroke="none" fill="#cd1996" fill-rule="evenodd"/><path d="M 172 28 C 170.625 28.440, 195.514 28.845, 227.309 28.900 C 265.619 28.966, 284.910 28.663, 284.500 28 C 283.752 26.789, 175.780 26.789, 172 28 M 1492.520 27.968 C 1492.084 28.673, 1509.798 29, 1548.359 29 C 1579.422 29, 1605.661 29.259, 1606.668 29.576 C 1608.233 30.067, 1608.208 29.957, 1606.500 28.826 C 1603.931 27.123, 1493.555 26.293, 1492.520 27.968 M 170.500 31.699 C 148.243 33.719, 124.367 43.975, 108.305 58.416 C 99.478 66.351, 89.492 83.139, 85.082 97.454 C 79.656 115.063, 79.750 112.982, 78.965 234 C 78.343 330.066, 78.007 347.669, 76.666 354.500 C 73.135 372.495, 67.943 382.982, 57.848 392.505 C 49.686 400.204, 45.231 402.582, 30 407.369 C 23.675 409.357, 18.005 411.325, 17.400 411.742 C 14.251 413.911, 14 417.155, 14 455.601 C 14 476.904, 13.783 494.116, 13.517 493.851 C 13.252 493.585, 13.008 475.720, 12.977 454.150 C 12.940 429.377, 12.566 415.150, 11.960 415.525 C 10.406 416.485, 10.689 501.497, 12.250 502.793 C 13.224 503.601, 13.458 502.799, 13.308 499.165 L 13.115 494.500 14.125 499.027 C 15.436 504.906, 18.574 507.054, 32.387 511.532 C 38.242 513.430, 45.364 516.164, 48.213 517.608 C 58.210 522.674, 68.925 536.038, 73.218 548.794 C 78.519 564.547, 78.276 558.785, 79.014 686 C 79.392 751.175, 79.975 805.400, 80.310 806.500 C 80.645 807.600, 81.852 812.325, 82.992 817 C 87.852 836.938, 97.126 853.296, 110.845 866.132 C 119.669 874.387, 126.461 878.778, 137.104 883.110 C 149.688 888.231, 162.331 890.940, 178.537 891.990 C 197.535 893.220, 282.080 893.300, 285.260 892.091 C 286.575 891.591, 288.517 889.904, 289.575 888.341 C 291.407 885.638, 291.500 883.243, 291.500 839 C 291.500 786.994, 291.593 787.736, 284.807 785.410 C 282.775 784.714, 272.636 783.694, 262.274 783.143 C 241.175 782.022, 235.966 780.671, 228.200 774.308 C 218.856 766.651, 214.477 760.606, 211.042 750.622 C 209.067 744.883, 207.122 728.491, 208.673 730.655 C 210.088 732.631, 209.139 543.326, 207.716 539.836 C 206.696 537.334, 206.556 539.085, 206.847 550.676 C 207.038 558.279, 206.974 564.275, 206.704 564 C 206.435 563.725, 205.700 557.261, 205.072 549.636 C 201.815 510.130, 190.299 487.981, 161.750 466.324 C 156.387 462.255, 152.025 458.606, 152.056 458.213 C 152.086 457.821, 154.865 455.727, 158.230 453.559 C 175.093 442.699, 184.423 432.867, 192.820 417.108 C 200.602 402.503, 204.165 388.333, 205.924 365 L 206.715 354.500 206.921 367 C 207.061 375.508, 207.412 378.791, 208.020 377.280 C 209.099 374.599, 209.821 187.992, 208.750 188.654 C 206.584 189.994, 209.239 176.343, 212.552 169.105 C 218 157.206, 228.184 146.936, 238.248 143.191 C 243.627 141.190, 255.426 139.236, 253.343 140.692 C 252.707 141.136, 259.671 141.380, 268.818 141.233 L 285.451 140.966 289.225 137.280 C 291.301 135.253, 292.998 132.898, 292.996 132.047 C 292.994 131.196, 292.094 131.974, 290.996 133.775 C 288.931 137.162, 285.477 139.066, 281.685 138.910 C 280.010 138.841, 280.224 138.610, 282.605 137.919 C 286.760 136.713, 290.820 132.491, 291.528 128.638 C 291.846 126.912, 291.969 106.150, 291.803 82.500 C 291.527 43.345, 291.339 39.206, 289.702 36.207 C 288.713 34.396, 286.771 32.483, 285.387 31.957 C 283.046 31.067, 180.016 30.836, 170.500 31.699 M 1488.755 33.910 C 1486.324 36.044, 1485.012 36.612, 1484.257 35.857 C 1482.353 33.953, 1481.822 47.902, 1482.167 90.701 C 1482.420 121.961, 1482.802 132.203, 1483.750 133.151 C 1484.749 134.150, 1485 134.122, 1485 133.013 C 1485 132.115, 1485.970 132.530, 1487.750 134.188 C 1489.263 135.597, 1491.850 137.253, 1493.500 137.868 L 1496.500 138.986 1492.735 138.692 C 1489.742 138.458, 1489.229 138.650, 1490.235 139.626 C 1491.098 140.463, 1496.649 140.956, 1507.721 141.177 C 1516.643 141.354, 1523.168 141.194, 1522.221 140.820 C 1518.564 139.376, 1527.807 140.050, 1533.068 141.612 C 1549.056 146.355, 1559.894 156.897, 1565.239 172.903 C 1567.012 178.215, 1567.107 183.431, 1567.106 275.500 C 1567.105 328.977, 1567.498 373.397, 1567.982 374.500 C 1568.509 375.702, 1568.955 360.735, 1569.099 337 L 1569.338 297.500 1570.067 334 C 1570.467 354.075, 1571.316 374.550, 1571.952 379.500 C 1573.158 388.888, 1576.252 400.664, 1579.951 409.938 C 1585.562 424.010, 1602.207 443.643, 1616.202 452.698 C 1619.887 455.083, 1623.134 457.408, 1623.416 457.864 C 1624.083 458.943, 1620.119 462.524, 1611.866 468.296 C 1598.858 477.393, 1586.110 492.670, 1580.598 505.767 C 1574.110 521.183, 1571.592 534.882, 1570.080 563 L 1569.300 577.500 1569.150 559.583 C 1569.067 549.729, 1568.662 542.004, 1568.250 542.416 C 1567.267 543.399, 1566.272 735, 1567.250 735 C 1569.714 735, 1565.399 751.512, 1560.932 759.178 C 1556.139 767.402, 1548.430 774.772, 1540.678 778.540 C 1533.293 782.130, 1530.845 782.520, 1506.850 783.933 C 1496.745 784.527, 1491.316 785.284, 1489.350 786.373 C 1487.783 787.240, 1485.768 788.224, 1484.874 788.559 C 1482.330 789.513, 1481.999 795.199, 1482.009 837.890 C 1482.018 879.941, 1482.435 888, 1484.600 888 C 1485.327 888, 1486.866 889.013, 1488.019 890.250 L 1490.115 892.500 1547.308 892.500 C 1609.501 892.500, 1611.891 892.332, 1628.500 886.805 C 1648.505 880.147, 1665.628 868.862, 1675.523 855.812 C 1680.789 848.869, 1688.901 832.610, 1691.406 823.980 C 1696.542 806.286, 1696.276 812.780, 1697.010 687 C 1697.759 558.650, 1697.566 562.701, 1703.696 546.944 C 1711.154 527.774, 1721.496 518.460, 1743 511.548 C 1747.675 510.046, 1754.537 507.395, 1758.250 505.658 L 1765 502.500 1765 458.809 C 1765 430.760, 1764.642 414.897, 1764 414.500 C 1763.449 414.159, 1762.972 414.918, 1762.937 416.191 L 1762.873 418.500 1761.971 416.256 C 1760.618 412.890, 1755.817 410.418, 1741.998 405.971 C 1717.862 398.204, 1707.780 386.880, 1700.179 359 L 1697.589 349.500 1696.968 235 C 1696.291 110.311, 1696.516 115.108, 1690.461 96 C 1680.192 63.599, 1656.194 42.749, 1618.914 33.839 C 1609.808 31.662, 1607.584 31.578, 1550.843 31.243 L 1492.186 30.897 1488.755 33.910 M 1699.242 234 C 1699.228 293.125, 1699.552 344.200, 1699.962 347.500 C 1700.371 350.800, 1700.733 304.675, 1700.765 245 C 1700.798 185.325, 1700.474 134.250, 1700.046 131.500 C 1699.618 128.750, 1699.256 174.875, 1699.242 234 M 76.481 234 C 76.481 287.625, 76.602 309.563, 76.750 282.750 C 76.898 255.937, 76.898 212.063, 76.750 185.250 C 76.602 158.438, 76.481 180.375, 76.481 234 M 421.312 157.494 C 420.139 158.316, 417.493 162.028, 415.434 165.744 C 413.374 169.460, 409.570 176.100, 406.981 180.500 C 404.392 184.900, 396.292 198.850, 388.982 211.500 C 381.672 224.150, 373.218 238.775, 370.196 244 C 367.173 249.225, 361.246 259.575, 357.025 267 C 352.803 274.425, 346.046 286.125, 342.010 293 C 337.974 299.875, 333.588 307.863, 332.263 310.750 L 329.853 316 332.259 321.255 C 333.582 324.145, 338.952 333.707, 344.192 342.505 C 354.176 359.267, 376.496 397.923, 396.731 433.500 C 403.301 445.050, 416.465 468, 425.985 484.500 C 435.505 501, 446.754 520.575, 450.984 528 C 455.214 535.425, 464.882 552.300, 472.470 565.500 C 480.057 578.700, 494.142 603.225, 503.768 620 C 529.607 665.024, 543.302 688.755, 552.823 705 C 587.315 763.854, 602.943 791.472, 603.232 794.082 C 603.379 795.412, 604.175 796.806, 605 797.180 C 606.857 798.021, 796.231 798.232, 798.412 797.395 C 799.279 797.063, 799.742 796.391, 799.441 795.904 C 799.139 795.416, 800.582 791.976, 802.646 788.259 C 808.968 776.874, 824.218 750.280, 833.186 735 C 837.867 727.025, 847.229 710.825, 853.991 699 C 860.753 687.175, 868.848 673.225, 871.980 668 C 875.111 662.775, 879.434 655.413, 881.587 651.641 C 883.739 647.869, 885.983 643.948, 886.573 642.929 C 887.544 641.253, 887.998 641.536, 891.314 645.885 C 894.299 649.799, 909.261 674.855, 918.254 691 C 919.326 692.925, 921.695 696.975, 923.518 700 C 928.154 707.693, 959.611 762.324, 963.249 769 C 968.169 778.028, 975.174 789.346, 977.331 791.750 C 978.888 793.487, 979.012 794, 977.874 794 C 977.063 794, 975.835 793.438, 975.143 792.750 C 974.135 791.747, 974.069 791.995, 974.806 794 C 975.391 795.591, 976.775 796.730, 978.613 797.132 C 983.521 798.206, 1168.599 798.103, 1171.435 797.025 C 1174.713 795.779, 1174.779 794.128, 1171.527 794.750 C 1169.104 795.213, 1169.119 795.152, 1172.277 791.742 C 1174.050 789.827, 1178.538 782.914, 1182.251 776.380 C 1185.964 769.846, 1192.424 758.650, 1196.608 751.500 C 1200.791 744.350, 1211.204 726.350, 1219.749 711.500 C 1228.293 696.650, 1236.194 682.925, 1237.306 681 C 1238.419 679.075, 1241.310 673.952, 1243.732 669.615 C 1246.153 665.278, 1250.804 657.491, 1254.067 652.312 C 1257.330 647.133, 1260 642.040, 1260 640.995 C 1260 638.052, 1258.299 634.734, 1247.865 617.328 C 1242.533 608.433, 1230.862 588.408, 1221.930 572.828 C 1197.714 530.589, 1189.101 515.721, 1181.478 503 C 1177.688 496.675, 1173.079 488.582, 1171.236 485.015 C 1169.393 481.448, 1167.236 477.813, 1166.442 476.936 C 1165.649 476.060, 1165 475.029, 1165 474.647 C 1165 474.264, 1163.237 471.150, 1161.082 467.725 C 1158.927 464.301, 1144.366 439.225, 1128.722 412 C 1113.079 384.775, 1095.659 354.625, 1090.011 345 C 1084.363 335.375, 1077.718 323.675, 1075.245 319 C 1072.771 314.325, 1069.286 308.025, 1067.500 305 C 1062.247 296.101, 1052.461 278.971, 1048.934 272.500 C 1047.135 269.200, 1044.599 264.797, 1043.297 262.715 C 1039.334 256.376, 997.154 182.569, 989.115 167.907 C 987.127 164.280, 984.770 160.230, 983.878 158.907 L 982.256 156.500 891.878 156.384 C 842.170 156.320, 799.844 156.667, 797.821 157.154 C 792.871 158.345, 788.758 164.151, 775.262 189 C 773.918 191.475, 772.184 194.210, 771.409 195.079 C 770.634 195.947, 770 196.991, 770 197.399 C 770 197.806, 767.894 201.596, 765.320 205.820 C 762.746 210.044, 757.127 219.691, 752.833 227.257 C 748.539 234.824, 741.365 247.424, 736.890 255.257 C 726.032 274.266, 713.344 296.450, 710.158 302 C 708.736 304.475, 706.545 308.025, 705.287 309.890 C 704.029 311.754, 703 313.948, 703 314.766 C 703 315.584, 705.189 319.908, 707.864 324.376 C 713.617 333.986, 716.707 339.328, 748.711 395 C 762.148 418.375, 776.570 443.350, 780.759 450.500 C 784.948 457.650, 790.015 466.425, 792.019 470 C 794.023 473.575, 796.589 478.075, 797.722 480 C 802.872 488.752, 842.645 558.039, 855.698 581 C 883.820 630.465, 884.726 632.099, 886.015 635.709 C 886.961 638.360, 886.933 638.399, 885.458 636.500 C 884.604 635.400, 874.527 618.075, 863.064 598 C 837.965 554.044, 785.108 462.222, 740.165 384.500 C 715.574 341.974, 704.388 322.372, 698.510 311.500 C 695.833 306.550, 677.380 274.375, 657.503 240 C 622.980 180.298, 612.367 161.614, 610.782 157.750 C 610.106 156.101, 604.681 156, 516.755 156 C 435.595 156, 423.167 156.195, 421.312 157.494 M 1593.958 436.949 C 1596.237 439.671, 1600.441 443.799, 1603.301 446.123 C 1607.135 449.238, 1606.143 447.939, 1599.521 441.173 C 1594.582 436.128, 1590.378 432, 1590.178 432 C 1589.978 432, 1591.678 434.227, 1593.958 436.949 M 75.770 669 C 75.918 727.575, 76.172 777.750, 76.335 780.500 C 76.497 783.250, 76.661 738.250, 76.698 680.500 C 76.736 622.750, 76.481 572.575, 76.133 569 C 75.785 565.425, 75.621 610.425, 75.770 669 M 1699.750 572.897 C 1699.338 576.415, 1699.057 627.940, 1699.126 687.397 C 1699.205 754.575, 1699.585 792.914, 1700.131 788.668 C 1700.614 784.911, 1700.894 733.386, 1700.754 674.168 C 1700.615 614.951, 1700.162 569.379, 1699.750 572.897 M 1569.365 689.500 C 1569.368 695, 1569.536 697.122, 1569.738 694.216 C 1569.941 691.311, 1569.939 686.811, 1569.734 684.216 C 1569.528 681.622, 1569.363 684, 1569.365 689.500 M 1512 780 L 1499.500 780.595 1513.500 780.679 C 1521.200 780.725, 1528.850 780.420, 1530.500 780 C 1533.130 779.331, 1532.946 779.247, 1529 779.321 C 1526.525 779.367, 1518.875 779.673, 1512 780 M 258.500 780.589 C 263.020 781.304, 280.075 781.547, 278.358 780.871 C 277.336 780.469, 272 780.170, 266.500 780.206 C 261 780.243, 257.400 780.415, 258.500 780.589 M 1166.324 790.460 C 1163.702 791.600, 1155.234 791.731, 1117.824 791.206 C 1092.896 790.857, 1061.706 790.555, 1048.514 790.536 C 1025.932 790.502, 1024.507 790.609, 1024.170 792.355 C 1023.824 794.152, 1026.017 794.192, 1094.156 793.637 C 1132.845 793.321, 1165.462 793.040, 1166.639 793.011 C 1167.901 792.980, 1168.989 792.148, 1169.295 790.980 C 1169.580 789.891, 1169.742 789.018, 1169.656 789.039 C 1169.570 789.061, 1168.071 789.700, 1166.324 790.460 M 177 895.465 C 180.765 896.724, 189.695 896.972, 231.691 896.985 C 264.090 896.995, 282.101 896.646, 282.500 896 C 282.909 895.338, 266.258 894.997, 233.309 894.991 C 205.914 894.987, 181.025 894.753, 178 894.471 L 172.500 893.960 177 895.465 M 1546.196 894.750 C 1511.298 894.925, 1493.104 895.360, 1493.505 896.009 C 1494.507 897.629, 1594.501 897.176, 1599.500 895.528 C 1601.700 894.803, 1602.600 894.271, 1601.500 894.346 C 1600.400 894.421, 1575.513 894.603, 1546.196 894.750" stroke="none" fill="#560d6c" fill-rule="evenodd"/></svg>